<?xml version="1.0" encoding="UTF-8"?>
<svg width="56px" height="56px" viewBox="0 0 56 56" version="1.1" xmlns="http://www.w3.org/2000/svg" xmlns:xlink="http://www.w3.org/1999/xlink">
    <!-- Generator: Sketch 52.4 (67378) - http://www.bohemiancoding.com/sketch -->
    <title>abc</title>
    <desc>Created with Sketch.</desc>
    <g id="abc" stroke="none" stroke-width="1" fill="none" fill-rule="evenodd">
        <g id="nxt-svg__bg">
            <polygon id="Path" fill="#1765A0" points="39 37.0533333 2.02962647e-16 0 0 56 38.943777 37.0906667"></polygon>
            <path d="M28.0186791,0.00506484251 C23.0603433,-0.00168828084 13.7207836,-0.00168828084 0,0.00506484251 L38.9086057,38 L48.2481654,33.2745473 L56,29.4482699 C56,29.2952188 56,19.4808171 56,0.00506484251 C42.3041219,0.0118179658 32.9770149,0.0118179658 28.0186791,0.00506484251 Z" id="Path" fill="#0C457F"></path>
            <polygon id="Path" fill="#1F355C" points="38.864 37 0 56 56 56 56 54.0019776"></polygon>
            <polygon id="Path" fill="#1B2542" points="39 37.1922902 56 54 56 29"></polygon>
        </g>
        <g id="nxt-svg__content" transform="translate(4.000000, 21.000000)" fill="#F9F9F9" fill-rule="nonzero">
            <g id="nxt-svg--anim">
                <g id="b">
                    <path d="M5.46452211,6.05138565 L6.71232638,4.36152276 C6.88858888,4.07107646 6.977982,3.73877775 6.97049277,3.40184753 C6.98244058,2.95021579 6.80268269,2.51362792 6.47325178,2.19417098 C6.14382087,1.87471405 5.69360201,1.70039857 5.22786958,1.71198464 L3.48524639,1.71198464 L3.48524639,12.1432371 L4.47488425,12.1432371 C5.32468058,12.1963467 6.1536763,11.8740097 6.73023011,11.2662946 C7.30678393,10.6585795 7.56906946,9.8306544 7.44379784,9.01386134 C7.51141265,7.73580595 6.70710478,6.56587143 5.46452211,6.13483567 M6.13145198,14 L0,14 L0,0.0221217445 L6.13145198,0.0221217445 C7.30761342,-0.123017459 8.45297871,0.455703388 9.00420122,1.47364109 C9.55542373,2.49157878 9.39648012,3.73447408 8.60554664,4.59101031 L7.8525613,5.55068553 C13.058917,7.94987359 11.3378077,13.8956875 6.10993811,13.8956875" id="nxt-svg__item"></path>
                </g>
                <g id="b2" transform="translate(13.000000, 0.000000)">
                    <path d="M5.4326465,6.01552879 L6.67317208,4.33567901 C6.84840641,4.04695372 6.93727809,3.71662401 6.92983255,3.38169024 C6.94171066,2.93273459 6.76300133,2.49873368 6.43549206,2.18116965 C6.10798278,1.86360562 5.66039013,1.69032304 5.19737441,1.70184045 L3.46491627,1.70184045 L3.46491627,12.0712836 L4.44878139,12.0712836 C5.29362069,12.1240785 6.11778072,11.8036515 6.69097139,11.1995373 C7.26416205,10.5954232 7.52491762,9.77240388 7.40037673,8.96045064 C7.46759713,7.68996823 6.66798095,6.52696604 5.4326465,6.09848434 M6.18123953,14 L0,14 L0,0.0219906644 L6.15985116,0.0219906644 C7.32915182,-0.122288532 8.46783598,0.453003165 9.0158431,1.46490918 C9.56385022,2.47681519 9.40583376,3.71234584 8.61951394,4.56380675 L7.87092092,5.51779552 C13.046907,7.90276744 11.3358372,13.81335 6.13846278,13.81335" id="nxt-svg__item"></path>
                </g>
                <g id="v" transform="translate(23.000000, 0.000000)">
                    <path d="M10.7739726,3.71733868e-15 L13,0 L8.36986301,14 L4.875,14 L0,0 L2.55993151,0 C3.58390411,0 3.8510274,0.251121076 4.3630137,1.92526158 L7.19006849,10.8609865 L10.7739726,3.71733868e-15 Z" id="nxt-svg__item"></path>
                </g>
                <g id="a" transform="translate(34.000000, 0.000000)">
                    <path d="M4.18416801,8.93572496 L6.26494346,2.40657698 L8.3457189,8.93572496 L4.18416801,8.93572496 Z M9.40872375,1.44394619 C8.88852989,0.23019432 8.61712439,0 7.57673667,0 L4.70436187,0 L0,14 L2.26171244,14 L3.30210016,10.8609865 L8.77544426,10.8609865 L9.81583199,14 L14,14 L9.40872375,1.44394619 Z" id="nxt-svg__item"></path>
                </g>
            </g>
        </g>
    </g>
</svg>